<?xml version="1.0" encoding="UTF-8" standalone="no"?><!-- Generator: Gravit.io --><svg xmlns="http://www.w3.org/2000/svg" xmlns:xlink="http://www.w3.org/1999/xlink" style="isolation:isolate" viewBox="0 0 649 250" width="649pt" height="250pt"><defs><clipPath id="_clipPath_y33Vib6NTgfiqgXcrTOYPZhQPfff3OYM"><rect width="649" height="250"/></clipPath></defs><g clip-path="url(#_clipPath_y33Vib6NTgfiqgXcrTOYPZhQPfff3OYM)"><rect x="0" y="0" width="649" height="250" transform="matrix(1,0,0,1,0,0)" fill="rgb(0,0,0)"/><path d=" M 126.3 137.8 L 126.3 137.8 L 126.3 137.8 Q 121.2 137.8 116.85 136.048 L 116.85 136.048 L 116.85 136.048 Q 112.5 134.296 109.25 131.181 L 109.25 131.181 L 109.25 131.181 Q 106 128.066 104.2 123.783 L 104.2 123.783 L 104.2 123.783 Q 102.4 119.5 102.4 114.341 L 102.4 114.341 L 102.4 114.341 Q 102.4 109.377 104.2 104.997 L 104.2 104.997 L 104.2 104.997 Q 106 100.616 109.25 97.356 L 109.25 97.356 L 109.25 97.356 Q 112.5 94.095 116.85 92.197 L 116.85 92.197 L 116.85 92.197 Q 121.2 90.298 126.4 90.298 L 126.4 90.298 L 126.4 90.298 Q 132.8 90.298 137.6 92.698 L 137.6 92.698 L 137.6 92.698 Q 142.4 95.098 145.2 99.298 L 145.2 99.298 L 138.9 106.198 L 138.3 106.898 L 137.5 106.298 L 137.5 106.298 Q 137.5 105.498 137.3 104.648 L 137.3 104.648 L 137.3 104.648 Q 137.1 103.798 136 102.598 L 136 102.598 L 136 102.598 Q 134.1 100.698 131.8 100.048 L 131.8 100.048 L 131.8 100.048 Q 129.5 99.398 126.5 99.398 L 126.5 99.398 L 126.5 99.398 Q 124 99.398 121.75 100.404 L 121.75 100.404 L 121.75 100.404 Q 119.5 101.409 117.7 103.276 L 117.7 103.276 L 117.7 103.276 Q 115.9 105.143 114.9 107.92 L 114.9 107.92 L 114.9 107.92 Q 113.9 110.696 113.9 114.334 L 113.9 114.334 L 113.9 114.334 Q 113.9 117.59 114.95 120.223 L 114.95 120.223 L 114.95 120.223 Q 116 122.855 117.75 124.722 L 117.75 124.722 L 117.75 124.722 Q 119.5 126.589 121.85 127.595 L 121.85 127.595 L 121.85 127.595 Q 124.2 128.6 126.8 128.6 L 126.8 128.6 L 126.8 128.6 Q 128.9 128.6 130.9 128 L 130.9 128 L 130.9 128 Q 132.9 127.4 134.85 126.15 L 134.85 126.15 L 134.85 126.15 Q 136.8 124.9 138.5 122.8 L 138.5 122.8 L 144.8 130 L 144.8 130 Q 141.1 134.1 136.2 135.95 L 136.2 135.95 L 136.2 135.95 Q 131.3 137.8 126.3 137.8 L 126.3 137.8 L 126.3 137.8 Z  M 173.4 137.8 L 173.4 137.8 L 173.4 137.8 Q 167.2 137.8 162.15 134.819 L 162.15 134.819 L 162.15 134.819 Q 157.1 131.838 154.2 126.462 L 154.2 126.462 L 154.2 126.462 Q 151.3 121.086 151.3 114.049 L 151.3 114.049 L 151.3 114.049 Q 151.3 107.305 154.2 101.929 L 154.2 101.929 L 154.2 101.929 Q 157.1 96.554 162.15 93.426 L 162.15 93.426 L 162.15 93.426 Q 167.2 90.298 173.4 90.298 L 173.4 90.298 L 173.4 90.298 Q 179.7 90.298 184.75 93.426 L 184.75 93.426 L 184.75 93.426 Q 189.8 96.554 192.75 101.929 L 192.75 101.929 L 192.75 101.929 Q 195.7 107.305 195.7 114.049 L 195.7 114.049 L 195.7 114.049 Q 195.7 121.086 192.75 126.462 L 192.75 126.462 L 192.75 126.462 Q 189.8 131.838 184.75 134.819 L 184.75 134.819 L 184.75 134.819 Q 179.7 137.8 173.4 137.8 Z  M 173.4 128.8 L 173.4 128.8 L 173.4 128.8 Q 176.7 128.8 179.1 126.92 L 179.1 126.92 L 179.1 126.92 Q 181.5 125.04 182.95 121.715 L 182.95 121.715 L 182.95 121.715 Q 184.4 118.389 184.4 114.051 L 184.4 114.051 L 184.4 114.051 Q 184.4 109.52 182.95 106.243 L 182.95 106.243 L 182.95 106.243 Q 181.5 102.965 179.1 101.182 L 179.1 101.182 L 179.1 101.182 Q 176.7 99.398 173.4 99.398 L 173.4 99.398 L 173.4 99.398 Q 170.4 99.398 167.95 101.182 L 167.95 101.182 L 167.95 101.182 Q 165.5 102.965 164.05 106.243 L 164.05 106.243 L 164.05 106.243 Q 162.6 109.52 162.6 114.051 L 162.6 114.051 L 162.6 114.051 Q 162.6 118.389 164 121.715 L 164 121.715 L 164 121.715 Q 165.4 125.04 167.85 126.92 L 167.85 126.92 L 167.85 126.92 Q 170.3 128.8 173.4 128.8 Z  M 215.3 136.999 L 204 136.999 L 204 91.299 L 215.3 91.299 L 215.3 97.798 L 215.3 97.798 Q 217 95.598 219 93.898 L 219 93.898 L 219 93.898 Q 221 92.198 223.45 91.248 L 223.45 91.248 L 223.45 91.248 Q 225.9 90.298 228.7 90.298 L 228.7 90.298 L 228.7 90.298 Q 232.8 90.298 236.2 92.212 L 236.2 92.212 L 236.2 92.212 Q 239.6 94.125 241.7 98.344 L 241.7 98.344 L 241.7 98.344 Q 243.8 102.562 243.8 109.43 L 243.8 109.43 L 243.8 136.999 L 232.5 136.999 L 232.5 109.744 L 232.5 109.744 Q 232.5 105.934 231.7 103.59 L 231.7 103.59 L 231.7 103.59 Q 230.9 101.245 229.35 100.122 L 229.35 100.122 L 229.35 100.122 Q 227.8 98.998 225.7 98.998 L 225.7 98.998 L 225.7 98.998 Q 223.8 98.998 221.95 99.731 L 221.95 99.731 L 221.95 99.731 Q 220.1 100.464 218.6 101.929 L 218.6 101.929 L 218.6 101.929 Q 217.1 103.394 216.2 105.397 L 216.2 105.397 L 216.2 105.397 Q 215.3 107.4 215.3 109.94 L 215.3 109.94 L 215.3 136.999 L 215.3 136.999 Z  M 274.4 137.8 L 274.4 137.8 L 274.4 137.8 Q 270.2 137.8 266.3 137.05 L 266.3 137.05 L 266.3 137.05 Q 262.4 136.3 259.1 134.65 L 259.1 134.65 L 259.1 134.65 Q 255.8 133 253 130.4 L 253 130.4 L 258 121.2 L 258.4 120.4 L 259.2 120.9 L 259.2 120.9 Q 259.5 121.6 259.8 122.45 L 259.8 122.45 L 259.8 122.45 Q 260.1 123.3 261.3 124.4 L 261.3 124.4 L 261.3 124.4 Q 263.8 126.5 267 127.7 L 267 127.7 L 267 127.7 Q 270.2 128.9 274.6 128.9 L 274.6 128.9 L 274.6 128.9 Q 277.4 128.9 279.35 128.294 L 279.35 128.294 L 279.35 128.294 Q 281.3 127.688 282.35 126.616 L 282.35 126.616 L 282.35 126.616 Q 283.4 125.543 283.4 124.145 L 283.4 124.145 L 283.4 124.145 Q 283.4 122.974 282.8 122.096 L 282.8 122.096 L 282.8 122.096 Q 282.2 121.218 280.9 120.536 L 280.9 120.536 L 280.9 120.536 Q 279.6 119.853 277.5 119.121 L 277.5 119.121 L 277.5 119.121 Q 275.4 118.39 272.5 117.512 L 272.5 117.512 L 272.5 117.512 Q 267.4 116.244 263.65 114.342 L 263.65 114.342 L 263.65 114.342 Q 259.9 112.44 257.9 109.709 L 257.9 109.709 L 257.9 109.709 Q 255.9 106.978 255.9 103.369 L 255.9 103.369 L 255.9 103.369 Q 255.9 99.565 258.15 96.638 L 258.15 96.638 L 258.15 96.638 Q 260.4 93.712 264.5 92.005 L 264.5 92.005 L 264.5 92.005 Q 268.6 90.298 274.2 90.298 L 274.2 90.298 L 274.2 90.298 Q 277.1 90.298 279.7 90.748 L 279.7 90.748 L 279.7 90.748 Q 282.3 91.198 284.65 92.048 L 284.65 92.048 L 284.65 92.048 Q 287 92.898 289.05 94.248 L 289.05 94.248 L 289.05 94.248 Q 291.1 95.598 292.9 97.398 L 292.9 97.398 L 287.4 105.098 L 286.7 105.898 L 286 105.298 L 286 105.298 Q 285.9 104.498 285.55 103.748 L 285.55 103.748 L 285.55 103.748 Q 285.2 102.998 284 101.898 L 284 101.898 L 284 101.898 Q 282 100.398 279.45 99.698 L 279.45 99.698 L 279.45 99.698 Q 276.9 98.998 274.4 98.998 L 274.4 98.998 L 274.4 98.998 Q 271 98.998 268.55 100.019 L 268.55 100.019 L 268.55 100.019 Q 266.1 101.04 266.1 103.174 L 266.1 103.174 L 266.1 103.174 Q 266.1 104.442 267.2 105.466 L 267.2 105.466 L 267.2 105.466 Q 268.3 106.49 270.85 107.417 L 270.85 107.417 L 270.85 107.417 Q 273.4 108.343 277.6 109.416 L 277.6 109.416 L 277.6 109.416 Q 283.2 110.879 286.75 112.781 L 286.75 112.781 L 286.75 112.781 Q 290.3 114.683 291.95 117.317 L 291.95 117.317 L 291.95 117.317 Q 293.6 119.95 293.6 123.462 L 293.6 123.462 L 293.6 123.462 Q 293.6 127.266 291.4 130.582 L 291.4 130.582 L 291.4 130.582 Q 289.2 133.898 284.95 135.849 L 284.95 135.849 L 284.95 135.849 Q 280.7 137.8 274.4 137.8 L 274.4 137.8 L 274.4 137.8 Z  M 323.4 137.8 L 323.4 137.8 L 323.4 137.8 Q 317.2 137.8 312.15 134.819 L 312.15 134.819 L 312.15 134.819 Q 307.1 131.838 304.2 126.462 L 304.2 126.462 L 304.2 126.462 Q 301.3 121.086 301.3 114.049 L 301.3 114.049 L 301.3 114.049 Q 301.3 107.305 304.2 101.929 L 304.2 101.929 L 304.2 101.929 Q 307.1 96.554 312.15 93.426 L 312.15 93.426 L 312.15 93.426 Q 317.2 90.298 323.4 90.298 L 323.4 90.298 L 323.4 90.298 Q 329.7 90.298 334.75 93.426 L 334.75 93.426 L 334.75 93.426 Q 339.8 96.554 342.75 101.929 L 342.75 101.929 L 342.75 101.929 Q 345.7 107.305 345.7 114.049 L 345.7 114.049 L 345.7 114.049 Q 345.7 121.086 342.75 126.462 L 342.75 126.462 L 342.75 126.462 Q 339.8 131.838 334.75 134.819 L 334.75 134.819 L 334.75 134.819 Q 329.7 137.8 323.4 137.8 Z  M 323.4 128.8 L 323.4 128.8 L 323.4 128.8 Q 326.7 128.8 329.1 126.92 L 329.1 126.92 L 329.1 126.92 Q 331.5 125.04 332.95 121.715 L 332.95 121.715 L 332.95 121.715 Q 334.4 118.389 334.4 114.051 L 334.4 114.051 L 334.4 114.051 Q 334.4 109.52 332.95 106.243 L 332.95 106.243 L 332.95 106.243 Q 331.5 102.965 329.1 101.182 L 329.1 101.182 L 329.1 101.182 Q 326.7 99.398 323.4 99.398 L 323.4 99.398 L 323.4 99.398 Q 320.4 99.398 317.95 101.182 L 317.95 101.182 L 317.95 101.182 Q 315.5 102.965 314.05 106.243 L 314.05 106.243 L 314.05 106.243 Q 312.6 109.52 312.6 114.051 L 312.6 114.051 L 312.6 114.051 Q 312.6 118.389 314 121.715 L 314 121.715 L 314 121.715 Q 315.4 125.04 317.85 126.92 L 317.85 126.92 L 317.85 126.92 Q 320.3 128.8 323.4 128.8 Z  M 392.3 136.999 L 354.8 136.999 L 354.8 128.099 L 367.9 128.099 L 367.9 79.399 L 355.4 79.399 L 355.4 70.499 L 379.3 70.499 L 379.3 128.099 L 392.3 128.099 L 392.3 136.999 L 392.3 136.999 Z  M 440.1 136.999 L 406.9 136.999 L 406.9 128.099 L 418.3 128.099 L 418.3 100.199 L 407.5 100.199 L 407.5 91.299 L 429.7 91.299 L 429.7 128.099 L 440.1 128.099 L 440.1 136.999 L 440.1 136.999 Z  M 423.5 81.698 L 423.5 81.698 L 423.5 81.698 Q 420.6 81.698 418.5 79.698 L 418.5 79.698 L 418.5 79.698 Q 416.4 77.698 416.4 74.898 L 416.4 74.898 L 416.4 74.898 Q 416.4 71.898 418.4 69.998 L 418.4 69.998 L 418.4 69.998 Q 420.4 68.098 423.5 68.098 L 423.5 68.098 L 423.5 68.098 Q 426.3 68.098 428.45 70.098 L 428.45 70.098 L 428.45 70.098 Q 430.6 72.098 430.6 74.898 L 430.6 74.898 L 430.6 74.898 Q 430.6 77.698 428.45 79.698 L 428.45 79.698 L 428.45 79.698 Q 426.3 81.698 423.5 81.698 Z  M 478.4 137.8 L 478.4 137.8 L 478.4 137.8 Q 474.4 137.8 471.45 136.522 L 471.45 136.522 L 471.45 136.522 Q 468.5 135.243 466.55 132.391 L 466.55 132.391 L 466.55 132.391 Q 464.6 129.54 463.75 124.819 L 463.75 124.819 L 463.75 124.819 Q 462.9 120.099 463.2 113.117 L 463.2 113.117 L 464.5 80.273 L 476.2 78.798 L 477.1 78.699 L 477.2 79.582 L 477.2 79.582 Q 476.8 80.268 476.4 80.954 L 476.4 80.954 L 476.4 80.954 Q 476 81.64 475.9 83.307 L 475.9 83.307 L 474.8 96.837 L 475.3 97.523 L 474.5 112.817 L 474.5 112.817 Q 474.2 119.19 474.95 122.67 L 474.95 122.67 L 474.95 122.67 Q 475.7 126.151 477.25 127.425 L 477.25 127.425 L 477.25 127.425 Q 478.8 128.7 481 128.7 L 481 128.7 L 481 128.7 Q 484.2 128.7 486.75 127.4 L 486.75 127.4 L 486.75 127.4 Q 489.3 126.1 491.5 124.4 L 491.5 124.4 L 493.9 132.6 L 493.9 132.6 Q 490.5 135.1 486.65 136.45 L 486.65 136.45 L 486.65 136.45 Q 482.8 137.8 478.4 137.8 L 478.4 137.8 L 478.4 137.8 Z  M 454.2 100.199 L 454.4 91.299 L 490.2 91.299 L 490.1 100.199 L 454.2 100.199 L 454.2 100.199 Z  M 525.6 137.8 L 525.6 137.8 L 525.6 137.8 Q 520.6 137.8 516.35 136.239 L 516.35 136.239 L 516.35 136.239 Q 512.1 134.679 508.95 131.704 L 508.95 131.704 L 508.95 131.704 Q 505.8 128.729 504.1 124.34 L 504.1 124.34 L 504.1 124.34 Q 502.4 119.95 502.4 114.391 L 502.4 114.391 L 502.4 114.391 Q 502.4 108.733 504.1 104.247 L 504.1 104.247 L 504.1 104.247 Q 505.8 99.76 508.75 96.638 L 508.75 96.638 L 508.75 96.638 Q 511.7 93.517 515.7 91.908 L 515.7 91.908 L 515.7 91.908 Q 519.7 90.298 524.3 90.298 L 524.3 90.298 L 524.3 90.298 Q 528.4 90.298 532 91.673 L 532 91.673 L 532 91.673 Q 535.6 93.048 538.35 95.846 L 538.35 95.846 L 538.35 95.846 Q 541.1 98.644 542.7 102.817 L 542.7 102.817 L 542.7 102.817 Q 544.3 106.989 544.3 112.487 L 544.3 112.487 L 544.3 112.487 Q 544.3 113.469 544.25 114.844 L 544.25 114.844 L 544.25 114.844 Q 544.2 116.218 544.1 117.2 L 544.1 117.2 L 513.3 117.2 L 513.3 117.2 Q 513.5 120.315 514.6 122.534 L 514.6 122.534 L 514.6 122.534 Q 515.7 124.752 517.5 126.168 L 517.5 126.168 L 517.5 126.168 Q 519.3 127.584 521.5 128.292 L 521.5 128.292 L 521.5 128.292 Q 523.7 129 526.1 129 L 526.1 129 L 526.1 129 Q 528.2 129 530.15 128.6 L 530.15 128.6 L 530.15 128.6 Q 532.1 128.2 533.85 127.2 L 533.85 127.2 L 533.85 127.2 Q 535.6 126.2 537.2 124.6 L 537.2 124.6 L 543 130.2 L 543 130.2 Q 540.8 132.8 538.05 134.55 L 538.05 134.55 L 538.05 134.55 Q 535.3 136.3 532.15 137.05 L 532.15 137.05 L 532.15 137.05 Q 529 137.8 525.6 137.8 Z  M 513.5 108.7 L 513.5 108.7 L 533.3 108.7 L 533.3 108.7 Q 533.3 106.418 532.65 104.612 L 532.65 104.612 L 532.65 104.612 Q 532 102.806 530.8 101.57 L 530.8 101.57 L 530.8 101.57 Q 529.6 100.334 527.85 99.716 L 527.85 99.716 L 527.85 99.716 Q 526.1 99.098 523.8 99.098 L 523.8 99.098 L 523.8 99.098 Q 521.9 99.098 520.15 99.621 L 520.15 99.621 L 520.15 99.621 Q 518.4 100.144 517 101.38 L 517 101.38 L 517 101.38 Q 515.6 102.616 514.7 104.422 L 514.7 104.422 L 514.7 104.422 Q 513.8 106.228 513.5 108.7 Z " fill="rgb(255,255,255)"/><path d=" M 469.156 176.616 L 466.78 176.616 L 464.716 165.648 L 467.068 165.648 L 468.34 173.149 L 469.924 166.896 L 471.34 166.896 L 473.212 173.101 L 473.212 173.101 Q 473.428 171.545 473.56 170.46 L 473.56 170.46 L 473.56 170.46 Q 473.692 169.375 473.764 168.62 L 473.764 168.62 L 473.764 168.62 Q 473.836 167.865 473.86 167.311 L 473.86 167.311 L 473.86 167.311 Q 473.884 166.756 473.884 166.285 L 473.884 166.285 L 473.884 165.648 L 476.188 165.648 L 476.188 165.648 Q 476.044 167.393 475.78 169.28 L 475.78 169.28 L 475.78 169.28 Q 475.516 171.167 475.192 173.031 L 475.192 173.031 L 475.192 173.031 Q 474.868 174.894 474.532 176.616 L 474.532 176.616 L 472.156 176.616 L 470.596 170.672 L 469.156 176.616 L 469.156 176.616 Z  M 478.636 176.616 L 478.636 165.648 L 481.444 165.648 L 481.42 168.792 L 481.108 168.6 L 481.108 168.6 Q 481.204 167.856 481.528 167.28 L 481.528 167.28 L 481.528 167.28 Q 481.852 166.704 482.344 166.272 L 482.344 166.272 L 482.344 166.272 Q 482.836 165.84 483.424 165.624 L 483.424 165.624 L 483.424 165.624 Q 484.012 165.408 484.636 165.408 L 484.636 165.408 L 484.636 165.408 Q 485.572 165.408 486.328 165.708 L 486.328 165.708 L 486.328 165.708 Q 487.084 166.008 487.732 166.68 L 487.732 166.68 L 486.58 168.96 L 486.508 169.152 L 486.292 169.056 L 486.292 169.056 Q 486.22 168.864 486.148 168.66 L 486.148 168.66 L 486.148 168.66 Q 486.076 168.456 485.788 168.192 L 485.788 168.192 L 485.788 168.192 Q 485.452 167.928 485.08 167.784 L 485.08 167.784 L 485.08 167.784 Q 484.708 167.64 484.276 167.64 L 484.276 167.64 L 484.276 167.64 Q 483.7 167.64 483.172 167.827 L 483.172 167.827 L 483.172 167.827 Q 482.644 168.015 482.248 168.413 L 482.248 168.413 L 482.248 168.413 Q 481.852 168.811 481.624 169.433 L 481.624 169.433 L 481.624 169.433 Q 481.396 170.054 481.396 170.897 L 481.396 170.897 L 481.396 176.616 L 478.636 176.616 L 478.636 176.616 Z  M 493.252 176.808 L 493.252 176.808 L 493.252 176.808 Q 491.404 176.808 490.384 175.949 L 490.384 175.949 L 490.384 175.949 Q 489.364 175.091 489.364 173.726 L 489.364 173.726 L 489.364 173.726 Q 489.364 172.856 489.76 172.115 L 489.76 172.115 L 489.76 172.115 Q 490.156 171.374 490.948 170.833 L 490.948 170.833 L 490.948 170.833 Q 491.74 170.292 492.916 169.998 L 492.916 169.998 L 492.916 169.998 Q 494.092 169.704 495.604 169.704 L 495.604 169.704 L 495.604 169.704 Q 495.796 169.704 496.084 169.704 L 496.084 169.704 L 496.084 169.704 Q 496.372 169.704 496.708 169.716 L 496.708 169.716 L 496.708 169.716 Q 497.044 169.728 497.332 169.776 L 497.332 169.776 L 497.404 171.648 L 497.404 171.648 Q 497.164 171.624 496.828 171.612 L 496.828 171.612 L 496.828 171.612 Q 496.492 171.6 496.144 171.588 L 496.144 171.588 L 496.144 171.588 Q 495.796 171.576 495.556 171.576 L 495.556 171.576 L 495.556 171.576 Q 494.596 171.576 493.936 171.714 L 493.936 171.714 L 493.936 171.714 Q 493.276 171.851 492.868 172.092 L 492.868 172.092 L 492.868 172.092 Q 492.46 172.333 492.268 172.666 L 492.268 172.666 L 492.268 172.666 Q 492.076 172.998 492.076 173.388 L 492.076 173.388 L 492.076 173.388 Q 492.076 173.755 492.208 174.008 L 492.208 174.008 L 492.208 174.008 Q 492.34 174.26 492.568 174.409 L 492.568 174.409 L 492.568 174.409 Q 492.796 174.558 493.108 174.627 L 493.108 174.627 L 493.108 174.627 Q 493.42 174.696 493.78 174.696 L 493.78 174.696 L 493.78 174.696 Q 494.5 174.696 495.04 174.477 L 495.04 174.477 L 495.04 174.477 Q 495.58 174.259 495.952 173.776 L 495.952 173.776 L 495.952 173.776 Q 496.324 173.293 496.504 172.568 L 496.504 172.568 L 496.504 172.568 Q 496.684 171.844 496.684 170.855 L 496.684 170.855 L 496.684 170.855 Q 496.684 169.521 496.396 168.808 L 496.396 168.808 L 496.396 168.808 Q 496.108 168.095 495.556 167.807 L 495.556 167.807 L 495.556 167.807 Q 495.004 167.52 494.164 167.52 L 494.164 167.52 L 494.164 167.52 Q 493.396 167.52 492.712 167.772 L 492.712 167.772 L 492.712 167.772 Q 492.028 168.024 491.38 168.696 L 491.38 168.696 L 489.892 167.064 L 489.892 167.064 Q 490.828 166.176 491.98 165.792 L 491.98 165.792 L 491.98 165.792 Q 493.132 165.408 494.284 165.408 L 494.284 165.408 L 494.284 165.408 Q 495.34 165.408 496.252 165.643 L 496.252 165.643 L 496.252 165.643 Q 497.164 165.879 497.848 166.432 L 497.848 166.432 L 497.848 166.432 Q 498.532 166.985 498.928 167.939 L 498.928 167.939 L 498.928 167.939 Q 499.324 168.893 499.324 170.305 L 499.324 170.305 L 499.324 176.616 L 496.516 176.616 L 496.516 175.32 L 496.516 175.32 Q 496.204 175.728 495.844 176.016 L 495.844 176.016 L 495.844 176.016 Q 495.484 176.304 495.076 176.472 L 495.076 176.472 L 495.076 176.472 Q 494.668 176.64 494.212 176.724 L 494.212 176.724 L 494.212 176.724 Q 493.756 176.808 493.252 176.808 Z  M 504.412 180.624 L 501.652 180.624 L 501.628 165.648 L 504.316 165.648 L 504.316 167.208 L 504.316 167.208 Q 504.7 166.584 505.168 166.188 L 505.168 166.188 L 505.168 166.188 Q 505.636 165.792 506.224 165.6 L 506.224 165.6 L 506.224 165.6 Q 506.812 165.408 507.46 165.408 L 507.46 165.408 L 507.46 165.408 Q 508.372 165.408 509.176 165.77 L 509.176 165.77 L 509.176 165.77 Q 509.98 166.132 510.58 166.856 L 510.58 166.856 L 510.58 166.856 Q 511.18 167.58 511.528 168.643 L 511.528 168.643 L 511.528 168.643 Q 511.876 169.706 511.876 171.131 L 511.876 171.131 L 511.876 171.131 Q 511.876 172.556 511.516 173.631 L 511.516 173.631 L 511.516 173.631 Q 511.156 174.705 510.52 175.406 L 510.52 175.406 L 510.52 175.406 Q 509.884 176.107 509.08 176.458 L 509.08 176.458 L 509.08 176.458 Q 508.276 176.808 507.412 176.808 L 507.412 176.808 L 507.412 176.808 Q 506.812 176.808 506.248 176.664 L 506.248 176.664 L 506.248 176.664 Q 505.684 176.52 505.204 176.244 L 505.204 176.244 L 505.204 176.244 Q 504.724 175.968 504.412 175.56 L 504.412 175.56 L 504.412 180.624 L 504.412 180.624 Z  M 506.668 174.696 L 506.668 174.696 L 506.668 174.696 Q 507.196 174.696 507.652 174.512 L 507.652 174.512 L 507.652 174.512 Q 508.108 174.328 508.456 173.903 L 508.456 173.903 L 508.456 173.903 Q 508.804 173.477 508.996 172.764 L 508.996 172.764 L 508.996 172.764 Q 509.188 172.051 509.188 170.993 L 509.188 170.993 L 509.188 170.993 Q 509.188 169.935 508.9 169.165 L 508.9 169.165 L 508.9 169.165 Q 508.612 168.395 508.084 167.981 L 508.084 167.981 L 508.084 167.981 Q 507.556 167.567 506.812 167.544 L 506.812 167.544 L 506.812 167.544 Q 506.236 167.519 505.792 167.727 L 505.792 167.727 L 505.792 167.727 Q 505.348 167.935 505.036 168.395 L 505.036 168.395 L 505.036 168.395 Q 504.724 168.855 504.556 169.567 L 504.556 169.567 L 504.556 169.567 Q 504.388 170.28 504.388 171.292 L 504.388 171.292 L 504.388 171.292 Q 504.412 171.982 504.508 172.534 L 504.508 172.534 L 504.508 172.534 Q 504.604 173.086 504.784 173.489 L 504.784 173.489 L 504.784 173.489 Q 504.964 173.891 505.228 174.156 L 505.228 174.156 L 505.228 174.156 Q 505.492 174.42 505.852 174.558 L 505.852 174.558 L 505.852 174.558 Q 506.212 174.696 506.668 174.696 Z  M 516.412 180.624 L 513.652 180.624 L 513.628 165.648 L 516.316 165.648 L 516.316 167.208 L 516.316 167.208 Q 516.7 166.584 517.168 166.188 L 517.168 166.188 L 517.168 166.188 Q 517.636 165.792 518.224 165.6 L 518.224 165.6 L 518.224 165.6 Q 518.812 165.408 519.46 165.408 L 519.46 165.408 L 519.46 165.408 Q 520.372 165.408 521.176 165.77 L 521.176 165.77 L 521.176 165.77 Q 521.98 166.132 522.58 166.856 L 522.58 166.856 L 522.58 166.856 Q 523.18 167.58 523.528 168.643 L 523.528 168.643 L 523.528 168.643 Q 523.876 169.706 523.876 171.131 L 523.876 171.131 L 523.876 171.131 Q 523.876 172.556 523.516 173.631 L 523.516 173.631 L 523.516 173.631 Q 523.156 174.705 522.52 175.406 L 522.52 175.406 L 522.52 175.406 Q 521.884 176.107 521.08 176.458 L 521.08 176.458 L 521.08 176.458 Q 520.276 176.808 519.412 176.808 L 519.412 176.808 L 519.412 176.808 Q 518.812 176.808 518.248 176.664 L 518.248 176.664 L 518.248 176.664 Q 517.684 176.52 517.204 176.244 L 517.204 176.244 L 517.204 176.244 Q 516.724 175.968 516.412 175.56 L 516.412 175.56 L 516.412 180.624 L 516.412 180.624 Z  M 518.668 174.696 L 518.668 174.696 L 518.668 174.696 Q 519.196 174.696 519.652 174.512 L 519.652 174.512 L 519.652 174.512 Q 520.108 174.328 520.456 173.903 L 520.456 173.903 L 520.456 173.903 Q 520.804 173.477 520.996 172.764 L 520.996 172.764 L 520.996 172.764 Q 521.188 172.051 521.188 170.993 L 521.188 170.993 L 521.188 170.993 Q 521.188 169.935 520.9 169.165 L 520.9 169.165 L 520.9 169.165 Q 520.612 168.395 520.084 167.981 L 520.084 167.981 L 520.084 167.981 Q 519.556 167.567 518.812 167.544 L 518.812 167.544 L 518.812 167.544 Q 518.236 167.519 517.792 167.727 L 517.792 167.727 L 517.792 167.727 Q 517.348 167.935 517.036 168.395 L 517.036 168.395 L 517.036 168.395 Q 516.724 168.855 516.556 169.567 L 516.556 169.567 L 516.556 169.567 Q 516.388 170.28 516.388 171.292 L 516.388 171.292 L 516.388 171.292 Q 516.412 171.982 516.508 172.534 L 516.508 172.534 L 516.508 172.534 Q 516.604 173.086 516.784 173.489 L 516.784 173.489 L 516.784 173.489 Q 516.964 173.891 517.228 174.156 L 517.228 174.156 L 517.228 174.156 Q 517.492 174.42 517.852 174.558 L 517.852 174.558 L 517.852 174.558 Q 518.212 174.696 518.668 174.696 Z  M 531.004 176.808 L 531.004 176.808 L 531.004 176.808 Q 529.804 176.808 528.784 176.433 L 528.784 176.433 L 528.784 176.433 Q 527.764 176.059 527.008 175.345 L 527.008 175.345 L 527.008 175.345 Q 526.252 174.631 525.844 173.578 L 525.844 173.578 L 525.844 173.578 Q 525.436 172.524 525.436 171.19 L 525.436 171.19 L 525.436 171.19 Q 525.436 169.832 525.844 168.755 L 525.844 168.755 L 525.844 168.755 Q 526.252 167.678 526.96 166.929 L 526.96 166.929 L 526.96 166.929 Q 527.668 166.18 528.628 165.794 L 528.628 165.794 L 528.628 165.794 Q 529.588 165.408 530.692 165.408 L 530.692 165.408 L 530.692 165.408 Q 531.676 165.408 532.54 165.738 L 532.54 165.738 L 532.54 165.738 Q 533.404 166.067 534.064 166.739 L 534.064 166.739 L 534.064 166.739 Q 534.724 167.411 535.108 168.412 L 535.108 168.412 L 535.108 168.412 Q 535.492 169.413 535.492 170.733 L 535.492 170.733 L 535.492 170.733 Q 535.492 170.969 535.48 171.298 L 535.48 171.298 L 535.48 171.298 Q 535.468 171.628 535.444 171.864 L 535.444 171.864 L 528.052 171.864 L 528.052 171.864 Q 528.1 172.612 528.364 173.144 L 528.364 173.144 L 528.364 173.144 Q 528.628 173.676 529.06 174.016 L 529.06 174.016 L 529.06 174.016 Q 529.492 174.356 530.02 174.526 L 530.02 174.526 L 530.02 174.526 Q 530.548 174.696 531.124 174.696 L 531.124 174.696 L 531.124 174.696 Q 531.628 174.696 532.096 174.6 L 532.096 174.6 L 532.096 174.6 Q 532.564 174.504 532.984 174.264 L 532.984 174.264 L 532.984 174.264 Q 533.404 174.024 533.788 173.64 L 533.788 173.64 L 535.18 174.984 L 535.18 174.984 Q 534.652 175.608 533.992 176.028 L 533.992 176.028 L 533.992 176.028 Q 533.332 176.448 532.576 176.628 L 532.576 176.628 L 532.576 176.628 Q 531.82 176.808 531.004 176.808 Z  M 528.1 169.824 L 528.1 169.824 L 532.852 169.824 L 532.852 169.824 Q 532.852 169.276 532.696 168.843 L 532.696 168.843 L 532.696 168.843 Q 532.54 168.409 532.252 168.113 L 532.252 168.113 L 532.252 168.113 Q 531.964 167.816 531.544 167.668 L 531.544 167.668 L 531.544 167.668 Q 531.124 167.52 530.572 167.52 L 530.572 167.52 L 530.572 167.52 Q 530.116 167.52 529.696 167.645 L 529.696 167.645 L 529.696 167.645 Q 529.276 167.771 528.94 168.067 L 528.94 168.067 L 528.94 168.067 Q 528.604 168.364 528.388 168.797 L 528.388 168.797 L 528.388 168.797 Q 528.172 169.231 528.1 169.824 Z  M 538.636 176.616 L 538.636 165.648 L 541.444 165.648 L 541.42 168.792 L 541.108 168.6 L 541.108 168.6 Q 541.204 167.856 541.528 167.28 L 541.528 167.28 L 541.528 167.28 Q 541.852 166.704 542.344 166.272 L 542.344 166.272 L 542.344 166.272 Q 542.836 165.84 543.424 165.624 L 543.424 165.624 L 543.424 165.624 Q 544.012 165.408 544.636 165.408 L 544.636 165.408 L 544.636 165.408 Q 545.572 165.408 546.328 165.708 L 546.328 165.708 L 546.328 165.708 Q 547.084 166.008 547.732 166.68 L 547.732 166.68 L 546.58 168.96 L 546.508 169.152 L 546.292 169.056 L 546.292 169.056 Q 546.22 168.864 546.148 168.66 L 546.148 168.66 L 546.148 168.66 Q 546.076 168.456 545.788 168.192 L 545.788 168.192 L 545.788 168.192 Q 545.452 167.928 545.08 167.784 L 545.08 167.784 L 545.08 167.784 Q 544.708 167.64 544.276 167.64 L 544.276 167.64 L 544.276 167.64 Q 543.7 167.64 543.172 167.827 L 543.172 167.827 L 543.172 167.827 Q 542.644 168.015 542.248 168.413 L 542.248 168.413 L 542.248 168.413 Q 541.852 168.811 541.624 169.433 L 541.624 169.433 L 541.624 169.433 Q 541.396 170.054 541.396 170.897 L 541.396 170.897 L 541.396 176.616 L 538.636 176.616 L 538.636 176.616 Z  M 375.172 176.808 L 375.172 176.808 L 375.172 176.808 Q 373.948 176.808 372.904 176.387 L 372.904 176.387 L 372.904 176.387 Q 371.86 175.967 371.08 175.219 L 371.08 175.219 L 371.08 175.219 Q 370.3 174.472 369.868 173.444 L 369.868 173.444 L 369.868 173.444 Q 369.436 172.416 369.436 171.178 L 369.436 171.178 L 369.436 171.178 Q 369.436 169.986 369.868 168.935 L 369.868 168.935 L 369.868 168.935 Q 370.3 167.884 371.08 167.101 L 371.08 167.101 L 371.08 167.101 Q 371.86 166.319 372.904 165.863 L 372.904 165.863 L 372.904 165.863 Q 373.948 165.408 375.196 165.408 L 375.196 165.408 L 375.196 165.408 Q 376.732 165.408 377.884 165.984 L 377.884 165.984 L 377.884 165.984 Q 379.036 166.56 379.708 167.568 L 379.708 167.568 L 378.196 169.224 L 378.052 169.392 L 377.86 169.248 L 377.86 169.248 Q 377.86 169.056 377.812 168.852 L 377.812 168.852 L 377.812 168.852 Q 377.764 168.648 377.5 168.36 L 377.5 168.36 L 377.5 168.36 Q 377.044 167.904 376.492 167.748 L 376.492 167.748 L 376.492 167.748 Q 375.94 167.592 375.22 167.592 L 375.22 167.592 L 375.22 167.592 Q 374.62 167.592 374.08 167.833 L 374.08 167.833 L 374.08 167.833 Q 373.54 168.074 373.108 168.522 L 373.108 168.522 L 373.108 168.522 Q 372.676 168.97 372.436 169.637 L 372.436 169.637 L 372.436 169.637 Q 372.196 170.303 372.196 171.176 L 372.196 171.176 L 372.196 171.176 Q 372.196 171.957 372.448 172.589 L 372.448 172.589 L 372.448 172.589 Q 372.7 173.221 373.12 173.669 L 373.12 173.669 L 373.12 173.669 Q 373.54 174.117 374.104 174.359 L 374.104 174.359 L 374.104 174.359 Q 374.668 174.6 375.292 174.6 L 375.292 174.6 L 375.292 174.6 Q 375.796 174.6 376.276 174.456 L 376.276 174.456 L 376.276 174.456 Q 376.756 174.312 377.224 174.012 L 377.224 174.012 L 377.224 174.012 Q 377.692 173.712 378.1 173.208 L 378.1 173.208 L 379.612 174.936 L 379.612 174.936 Q 378.724 175.92 377.548 176.364 L 377.548 176.364 L 377.548 176.364 Q 376.372 176.808 375.172 176.808 L 375.172 176.808 L 375.172 176.808 Z  M 386.476 176.808 L 386.476 176.808 L 386.476 176.808 Q 384.988 176.808 383.776 176.093 L 383.776 176.093 L 383.776 176.093 Q 382.564 175.377 381.868 174.087 L 381.868 174.087 L 381.868 174.087 Q 381.172 172.797 381.172 171.108 L 381.172 171.108 L 381.172 171.108 Q 381.172 169.489 381.868 168.199 L 381.868 168.199 L 381.868 168.199 Q 382.564 166.909 383.776 166.158 L 383.776 166.158 L 383.776 166.158 Q 384.988 165.408 386.476 165.408 L 386.476 165.408 L 386.476 165.408 Q 387.988 165.408 389.2 166.158 L 389.2 166.158 L 389.2 166.158 Q 390.412 166.909 391.12 168.199 L 391.12 168.199 L 391.12 168.199 Q 391.828 169.489 391.828 171.108 L 391.828 171.108 L 391.828 171.108 Q 391.828 172.797 391.12 174.087 L 391.12 174.087 L 391.12 174.087 Q 390.412 175.377 389.2 176.093 L 389.2 176.093 L 389.2 176.093 Q 387.988 176.808 386.476 176.808 Z  M 386.476 174.648 L 386.476 174.648 L 386.476 174.648 Q 387.268 174.648 387.844 174.197 L 387.844 174.197 L 387.844 174.197 Q 388.42 173.746 388.768 172.948 L 388.768 172.948 L 388.768 172.948 Q 389.116 172.149 389.116 171.108 L 389.116 171.108 L 389.116 171.108 Q 389.116 170.021 388.768 169.234 L 388.768 169.234 L 388.768 169.234 Q 388.42 168.448 387.844 168.02 L 387.844 168.02 L 387.844 168.02 Q 387.268 167.592 386.476 167.592 L 386.476 167.592 L 386.476 167.592 Q 385.756 167.592 385.168 168.02 L 385.168 168.02 L 385.168 168.02 Q 384.58 168.448 384.232 169.234 L 384.232 169.234 L 384.232 169.234 Q 383.884 170.021 383.884 171.108 L 383.884 171.108 L 383.884 171.108 Q 383.884 172.149 384.22 172.948 L 384.22 172.948 L 384.22 172.948 Q 384.556 173.746 385.144 174.197 L 385.144 174.197 L 385.144 174.197 Q 385.732 174.648 386.476 174.648 Z  M 396.532 176.616 L 393.82 176.616 L 393.82 165.648 L 396.532 165.648 L 396.532 167.208 L 396.532 167.208 Q 396.94 166.68 397.42 166.272 L 397.42 166.272 L 397.42 166.272 Q 397.9 165.864 398.488 165.636 L 398.488 165.636 L 398.488 165.636 Q 399.076 165.408 399.748 165.408 L 399.748 165.408 L 399.748 165.408 Q 400.732 165.408 401.548 165.867 L 401.548 165.867 L 401.548 165.867 Q 402.364 166.326 402.868 167.338 L 402.868 167.338 L 402.868 167.338 Q 403.372 168.351 403.372 169.999 L 403.372 169.999 L 403.372 176.616 L 400.66 176.616 L 400.66 170.075 L 400.66 170.075 Q 400.66 169.16 400.468 168.598 L 400.468 168.598 L 400.468 168.598 Q 400.276 168.035 399.904 167.765 L 399.904 167.765 L 399.904 167.765 Q 399.532 167.496 399.028 167.496 L 399.028 167.496 L 399.028 167.496 Q 398.572 167.496 398.128 167.671 L 398.128 167.671 L 398.128 167.671 Q 397.684 167.847 397.324 168.199 L 397.324 168.199 L 397.324 168.199 Q 396.964 168.551 396.748 169.031 L 396.748 169.031 L 396.748 169.031 Q 396.532 169.512 396.532 170.121 L 396.532 170.121 L 396.532 176.616 L 396.532 176.616 Z  M 410.716 176.808 L 410.716 176.808 L 410.716 176.808 Q 409.708 176.808 408.772 176.628 L 408.772 176.628 L 408.772 176.628 Q 407.836 176.448 407.044 176.052 L 407.044 176.052 L 407.044 176.052 Q 406.252 175.656 405.58 175.032 L 405.58 175.032 L 406.78 172.824 L 406.876 172.632 L 407.068 172.752 L 407.068 172.752 Q 407.14 172.92 407.212 173.124 L 407.212 173.124 L 407.212 173.124 Q 407.284 173.328 407.572 173.592 L 407.572 173.592 L 407.572 173.592 Q 408.172 174.096 408.94 174.384 L 408.94 174.384 L 408.94 174.384 Q 409.708 174.672 410.764 174.672 L 410.764 174.672 L 410.764 174.672 Q 411.436 174.672 411.904 174.527 L 411.904 174.527 L 411.904 174.527 Q 412.372 174.381 412.624 174.124 L 412.624 174.124 L 412.624 174.124 Q 412.876 173.866 412.876 173.531 L 412.876 173.531 L 412.876 173.531 Q 412.876 173.25 412.732 173.039 L 412.732 173.039 L 412.732 173.039 Q 412.588 172.828 412.276 172.665 L 412.276 172.665 L 412.276 172.665 Q 411.964 172.501 411.46 172.325 L 411.46 172.325 L 411.46 172.325 Q 410.956 172.15 410.26 171.939 L 410.26 171.939 L 410.26 171.939 Q 409.036 171.635 408.136 171.178 L 408.136 171.178 L 408.136 171.178 Q 407.236 170.722 406.756 170.066 L 406.756 170.066 L 406.756 170.066 Q 406.276 169.411 406.276 168.544 L 406.276 168.544 L 406.276 168.544 Q 406.276 167.632 406.816 166.929 L 406.816 166.929 L 406.816 166.929 Q 407.356 166.227 408.34 165.817 L 408.34 165.817 L 408.34 165.817 Q 409.324 165.408 410.668 165.408 L 410.668 165.408 L 410.668 165.408 Q 411.364 165.408 411.988 165.516 L 411.988 165.516 L 411.988 165.516 Q 412.612 165.624 413.176 165.828 L 413.176 165.828 L 413.176 165.828 Q 413.74 166.032 414.232 166.356 L 414.232 166.356 L 414.232 166.356 Q 414.724 166.68 415.156 167.112 L 415.156 167.112 L 413.836 168.96 L 413.668 169.152 L 413.5 169.008 L 413.5 169.008 Q 413.476 168.816 413.392 168.636 L 413.392 168.636 L 413.392 168.636 Q 413.308 168.456 413.02 168.192 L 413.02 168.192 L 413.02 168.192 Q 412.54 167.832 411.928 167.664 L 411.928 167.664 L 411.928 167.664 Q 411.316 167.496 410.716 167.496 L 410.716 167.496 L 410.716 167.496 Q 409.9 167.496 409.312 167.741 L 409.312 167.741 L 409.312 167.741 Q 408.724 167.986 408.724 168.498 L 408.724 168.498 L 408.724 168.498 Q 408.724 168.802 408.988 169.048 L 408.988 169.048 L 408.988 169.048 Q 409.252 169.294 409.864 169.516 L 409.864 169.516 L 409.864 169.516 Q 410.476 169.738 411.484 169.996 L 411.484 169.996 L 411.484 169.996 Q 412.828 170.347 413.68 170.803 L 413.68 170.803 L 413.68 170.803 Q 414.532 171.26 414.928 171.892 L 414.928 171.892 L 414.928 171.892 Q 415.324 172.524 415.324 173.367 L 415.324 173.367 L 415.324 173.367 Q 415.324 174.28 414.796 175.076 L 414.796 175.076 L 414.796 175.076 Q 414.268 175.872 413.248 176.34 L 413.248 176.34 L 413.248 176.34 Q 412.228 176.808 410.716 176.808 L 410.716 176.808 L 410.716 176.808 Z  M 422.476 176.808 L 422.476 176.808 L 422.476 176.808 Q 420.988 176.808 419.776 176.093 L 419.776 176.093 L 419.776 176.093 Q 418.564 175.377 417.868 174.087 L 417.868 174.087 L 417.868 174.087 Q 417.172 172.797 417.172 171.108 L 417.172 171.108 L 417.172 171.108 Q 417.172 169.489 417.868 168.199 L 417.868 168.199 L 417.868 168.199 Q 418.564 166.909 419.776 166.158 L 419.776 166.158 L 419.776 166.158 Q 420.988 165.408 422.476 165.408 L 422.476 165.408 L 422.476 165.408 Q 423.988 165.408 425.2 166.158 L 425.2 166.158 L 425.2 166.158 Q 426.412 166.909 427.12 168.199 L 427.12 168.199 L 427.12 168.199 Q 427.828 169.489 427.828 171.108 L 427.828 171.108 L 427.828 171.108 Q 427.828 172.797 427.12 174.087 L 427.12 174.087 L 427.12 174.087 Q 426.412 175.377 425.2 176.093 L 425.2 176.093 L 425.2 176.093 Q 423.988 176.808 422.476 176.808 Z  M 422.476 174.648 L 422.476 174.648 L 422.476 174.648 Q 423.268 174.648 423.844 174.197 L 423.844 174.197 L 423.844 174.197 Q 424.42 173.746 424.768 172.948 L 424.768 172.948 L 424.768 172.948 Q 425.116 172.149 425.116 171.108 L 425.116 171.108 L 425.116 171.108 Q 425.116 170.021 424.768 169.234 L 424.768 169.234 L 424.768 169.234 Q 424.42 168.448 423.844 168.02 L 423.844 168.02 L 423.844 168.02 Q 423.268 167.592 422.476 167.592 L 422.476 167.592 L 422.476 167.592 Q 421.756 167.592 421.168 168.02 L 421.168 168.02 L 421.168 168.02 Q 420.58 168.448 420.232 169.234 L 420.232 169.234 L 420.232 169.234 Q 419.884 170.021 419.884 171.108 L 419.884 171.108 L 419.884 171.108 Q 419.884 172.149 420.22 172.948 L 420.22 172.948 L 420.22 172.948 Q 420.556 173.746 421.144 174.197 L 421.144 174.197 L 421.144 174.197 Q 421.732 174.648 422.476 174.648 Z  M 439.012 176.616 L 430.012 176.616 L 430.012 174.48 L 433.156 174.48 L 433.156 162.792 L 430.156 162.792 L 430.156 160.656 L 435.892 160.656 L 435.892 174.48 L 439.012 174.48 L 439.012 176.616 L 439.012 176.616 Z  M 447.004 176.808 L 447.004 176.808 L 447.004 176.808 Q 445.804 176.808 444.784 176.433 L 444.784 176.433 L 444.784 176.433 Q 443.764 176.059 443.008 175.345 L 443.008 175.345 L 443.008 175.345 Q 442.252 174.631 441.844 173.578 L 441.844 173.578 L 441.844 173.578 Q 441.436 172.524 441.436 171.19 L 441.436 171.19 L 441.436 171.19 Q 441.436 169.832 441.844 168.755 L 441.844 168.755 L 441.844 168.755 Q 442.252 167.678 442.96 166.929 L 442.96 166.929 L 442.96 166.929 Q 443.668 166.18 444.628 165.794 L 444.628 165.794 L 444.628 165.794 Q 445.588 165.408 446.692 165.408 L 446.692 165.408 L 446.692 165.408 Q 447.676 165.408 448.54 165.738 L 448.54 165.738 L 448.54 165.738 Q 449.404 166.067 450.064 166.739 L 450.064 166.739 L 450.064 166.739 Q 450.724 167.411 451.108 168.412 L 451.108 168.412 L 451.108 168.412 Q 451.492 169.413 451.492 170.733 L 451.492 170.733 L 451.492 170.733 Q 451.492 170.969 451.48 171.298 L 451.48 171.298 L 451.48 171.298 Q 451.468 171.628 451.444 171.864 L 451.444 171.864 L 444.052 171.864 L 444.052 171.864 Q 444.1 172.612 444.364 173.144 L 444.364 173.144 L 444.364 173.144 Q 444.628 173.676 445.06 174.016 L 445.06 174.016 L 445.06 174.016 Q 445.492 174.356 446.02 174.526 L 446.02 174.526 L 446.02 174.526 Q 446.548 174.696 447.124 174.696 L 447.124 174.696 L 447.124 174.696 Q 447.628 174.696 448.096 174.6 L 448.096 174.6 L 448.096 174.6 Q 448.564 174.504 448.984 174.264 L 448.984 174.264 L 448.984 174.264 Q 449.404 174.024 449.788 173.64 L 449.788 173.64 L 451.18 174.984 L 451.18 174.984 Q 450.652 175.608 449.992 176.028 L 449.992 176.028 L 449.992 176.028 Q 449.332 176.448 448.576 176.628 L 448.576 176.628 L 448.576 176.628 Q 447.82 176.808 447.004 176.808 Z  M 444.1 169.824 L 444.1 169.824 L 448.852 169.824 L 448.852 169.824 Q 448.852 169.276 448.696 168.843 L 448.696 168.843 L 448.696 168.843 Q 448.54 168.409 448.252 168.113 L 448.252 168.113 L 448.252 168.113 Q 447.964 167.816 447.544 167.668 L 447.544 167.668 L 447.544 167.668 Q 447.124 167.52 446.572 167.52 L 446.572 167.52 L 446.572 167.52 Q 446.116 167.52 445.696 167.645 L 445.696 167.645 L 445.696 167.645 Q 445.276 167.771 444.94 168.067 L 444.94 168.067 L 444.94 168.067 Q 444.604 168.364 444.388 168.797 L 444.388 168.797 L 444.388 168.797 Q 444.172 169.231 444.1 169.824 Z  M 307.012 176.616 L 298.012 176.616 L 298.012 174.48 L 301.156 174.48 L 301.156 162.792 L 298.156 162.792 L 298.156 160.656 L 303.892 160.656 L 303.892 174.48 L 307.012 174.48 L 307.012 176.616 L 307.012 176.616 Z  M 318.484 176.616 L 310.516 176.616 L 310.516 174.48 L 313.252 174.48 L 313.252 167.784 L 310.66 167.784 L 310.66 165.648 L 315.988 165.648 L 315.988 174.48 L 318.484 174.48 L 318.484 176.616 L 318.484 176.616 Z  M 314.5 163.344 L 314.5 163.344 L 314.5 163.344 Q 313.804 163.344 313.3 162.864 L 313.3 162.864 L 313.3 162.864 Q 312.796 162.384 312.796 161.712 L 312.796 161.712 L 312.796 161.712 Q 312.796 160.992 313.276 160.536 L 313.276 160.536 L 313.276 160.536 Q 313.756 160.08 314.5 160.08 L 314.5 160.08 L 314.5 160.08 Q 315.172 160.08 315.688 160.56 L 315.688 160.56 L 315.688 160.56 Q 316.204 161.04 316.204 161.712 L 316.204 161.712 L 316.204 161.712 Q 316.204 162.384 315.688 162.864 L 315.688 162.864 L 315.688 162.864 Q 315.172 163.344 314.5 163.344 Z  M 326.236 180.744 L 326.236 180.744 L 326.236 180.744 Q 325.036 180.744 324.1 180.534 L 324.1 180.534 L 324.1 180.534 Q 323.164 180.324 322.516 179.95 L 322.516 179.95 L 322.516 179.95 Q 321.868 179.576 321.52 179.051 L 321.52 179.051 L 321.52 179.051 Q 321.172 178.525 321.172 177.871 L 321.172 177.871 L 321.172 177.871 Q 321.172 177.311 321.46 176.82 L 321.46 176.82 L 321.46 176.82 Q 321.748 176.33 322.24 175.968 L 322.24 175.968 L 322.24 175.968 Q 322.732 175.606 323.308 175.395 L 323.308 175.395 L 324.532 175.886 L 324.532 175.886 Q 324.22 176.115 323.92 176.332 L 323.92 176.332 L 323.92 176.332 Q 323.62 176.55 323.44 176.813 L 323.44 176.813 L 323.44 176.813 Q 323.26 177.076 323.26 177.442 L 323.26 177.442 L 323.26 177.442 Q 323.26 177.74 323.5 177.969 L 323.5 177.969 L 323.5 177.969 Q 323.74 178.198 324.172 178.346 L 324.172 178.346 L 324.172 178.346 Q 324.604 178.495 325.18 178.564 L 325.18 178.564 L 325.18 178.564 Q 325.756 178.632 326.452 178.632 L 326.452 178.632 L 326.452 178.632 Q 327.364 178.632 327.988 178.476 L 327.988 178.476 L 327.988 178.476 Q 328.612 178.32 328.948 178.041 L 328.948 178.041 L 328.948 178.041 Q 329.284 177.761 329.284 177.404 L 329.284 177.404 L 329.284 177.404 Q 329.284 177.054 329.092 176.832 L 329.092 176.832 L 329.092 176.832 Q 328.9 176.61 328.396 176.517 L 328.396 176.517 L 328.396 176.517 Q 327.892 176.423 326.98 176.423 L 326.98 176.423 L 326.98 176.423 Q 326.212 176.423 325.468 176.353 L 325.468 176.353 L 325.468 176.353 Q 324.724 176.283 324.064 176.119 L 324.064 176.119 L 324.064 176.119 Q 323.404 175.956 322.9 175.687 L 322.9 175.687 L 322.9 175.687 Q 322.396 175.419 322.12 175.022 L 322.12 175.022 L 322.12 175.022 Q 321.844 174.625 321.844 174.064 L 321.844 174.064 L 321.844 174.064 Q 321.844 173.282 322.312 172.714 L 322.312 172.714 L 322.312 172.714 Q 322.78 172.146 323.452 171.672 L 323.452 171.672 L 324.7 172.392 L 324.7 172.392 Q 324.46 172.605 324.28 172.747 L 324.28 172.747 L 324.28 172.747 Q 324.1 172.889 324.004 173.019 L 324.004 173.019 L 324.004 173.019 Q 323.908 173.15 323.908 173.387 L 323.908 173.387 L 323.908 173.387 Q 323.908 173.667 324.28 173.854 L 324.28 173.854 L 324.28 173.854 Q 324.652 174.041 325.504 174.134 L 325.504 174.134 L 325.504 174.134 Q 326.356 174.227 327.724 174.227 L 327.724 174.227 L 327.724 174.227 Q 328.804 174.227 329.524 174.449 L 329.524 174.449 L 329.524 174.449 Q 330.244 174.671 330.676 175.08 L 330.676 175.08 L 330.676 175.08 Q 331.108 175.489 331.312 176.014 L 331.312 176.014 L 331.312 176.014 Q 331.516 176.54 331.516 177.124 L 331.516 177.124 L 331.516 177.124 Q 331.516 177.825 331.204 178.467 L 331.204 178.467 L 331.204 178.467 Q 330.892 179.109 330.244 179.623 L 330.244 179.623 L 330.244 179.623 Q 329.596 180.137 328.6 180.441 L 328.6 180.441 L 328.6 180.441 Q 327.604 180.744 326.236 180.744 Z  M 326.02 172.896 L 326.02 172.896 L 326.02 172.896 Q 324.844 172.896 323.896 172.408 L 323.896 172.408 L 323.896 172.408 Q 322.948 171.919 322.408 171.07 L 322.408 171.07 L 322.408 171.07 Q 321.868 170.222 321.868 169.175 L 321.868 169.175 L 321.868 169.175 Q 321.868 168.129 322.408 167.28 L 322.408 167.28 L 322.408 167.28 Q 322.948 166.431 323.896 165.919 L 323.896 165.919 L 323.896 165.919 Q 324.844 165.408 326.02 165.408 L 326.02 165.408 L 326.02 165.408 Q 327.22 165.408 328.144 165.919 L 328.144 165.919 L 328.144 165.919 Q 329.068 166.431 329.608 167.28 L 329.608 167.28 L 329.608 167.28 Q 330.148 168.129 330.148 169.175 L 330.148 169.175 L 330.148 169.175 Q 330.148 170.222 329.608 171.07 L 329.608 171.07 L 329.608 171.07 Q 329.068 171.919 328.144 172.408 L 328.144 172.408 L 328.144 172.408 Q 327.22 172.896 326.02 172.896 Z  M 325.996 170.928 L 325.996 170.928 L 325.996 170.928 Q 326.524 170.928 326.944 170.704 L 326.944 170.704 L 326.944 170.704 Q 327.364 170.479 327.616 170.075 L 327.616 170.075 L 327.616 170.075 Q 327.868 169.671 327.868 169.177 L 327.868 169.177 L 327.868 169.177 Q 327.868 168.684 327.616 168.302 L 327.616 168.302 L 327.616 168.302 Q 327.364 167.921 326.944 167.696 L 326.944 167.696 L 326.944 167.696 Q 326.524 167.472 325.996 167.472 L 325.996 167.472 L 325.996 167.472 Q 325.516 167.472 325.096 167.707 L 325.096 167.707 L 325.096 167.707 Q 324.676 167.943 324.412 168.324 L 324.412 168.324 L 324.412 168.324 Q 324.148 168.706 324.148 169.177 L 324.148 169.177 L 324.148 169.177 Q 324.148 169.649 324.4 170.053 L 324.4 170.053 L 324.4 170.053 Q 324.652 170.457 325.072 170.692 L 325.072 170.692 L 325.072 170.692 Q 325.492 170.928 325.996 170.928 Z  M 329.476 167.736 L 329.476 167.736 L 328.444 166.464 L 328.444 166.464 Q 329.116 165.912 329.98 165.624 L 329.98 165.624 L 329.98 165.624 Q 330.844 165.336 331.852 165.408 L 331.852 165.408 L 332.116 167.28 L 332.116 167.28 Q 331.396 167.136 330.7 167.256 L 330.7 167.256 L 330.7 167.256 Q 330.004 167.376 329.476 167.736 Z  M 333.82 176.616 L 333.82 160.656 L 336.532 160.656 L 336.748 160.656 L 336.748 160.874 L 336.748 160.874 Q 336.628 161.02 336.592 161.19 L 336.592 161.19 L 336.592 161.19 Q 336.556 161.36 336.556 161.772 L 336.556 161.772 L 336.556 167.136 L 336.556 167.136 Q 336.964 166.536 337.492 166.164 L 337.492 166.164 L 337.492 166.164 Q 338.02 165.792 338.632 165.6 L 338.632 165.6 L 338.632 165.6 Q 339.244 165.408 339.82 165.408 L 339.82 165.408 L 339.82 165.408 Q 340.9 165.408 341.704 165.867 L 341.704 165.867 L 341.704 165.867 Q 342.508 166.326 342.952 167.35 L 342.952 167.35 L 342.952 167.35 Q 343.396 168.374 343.396 169.999 L 343.396 169.999 L 343.396 176.616 L 340.66 176.616 L 340.66 170.075 L 340.66 170.075 Q 340.66 169.113 340.468 168.539 L 340.468 168.539 L 340.468 168.539 Q 340.276 167.965 339.928 167.73 L 339.928 167.73 L 339.928 167.73 Q 339.58 167.496 339.1 167.496 L 339.1 167.496 L 339.1 167.496 Q 338.692 167.496 338.308 167.613 L 338.308 167.613 L 338.308 167.613 Q 337.924 167.73 337.612 167.976 L 337.612 167.976 L 337.612 167.976 Q 337.3 168.222 337.048 168.574 L 337.048 168.574 L 337.048 168.574 Q 336.796 168.926 336.676 169.371 L 336.676 169.371 L 336.676 169.371 Q 336.556 169.817 336.556 170.356 L 336.556 170.356 L 336.556 176.616 L 333.82 176.616 L 333.82 176.616 Z  M 351.676 176.808 L 351.676 176.808 L 351.676 176.808 Q 350.716 176.808 350.008 176.501 L 350.008 176.501 L 350.008 176.501 Q 349.3 176.194 348.832 175.51 L 348.832 175.51 L 348.832 175.51 Q 348.364 174.826 348.16 173.693 L 348.16 173.693 L 348.16 173.693 Q 347.956 172.56 348.028 170.884 L 348.028 170.884 L 348.34 163.001 L 351.148 162.647 L 351.364 162.624 L 351.388 162.836 L 351.388 162.836 Q 351.292 163 351.196 163.165 L 351.196 163.165 L 351.196 163.165 Q 351.1 163.33 351.076 163.73 L 351.076 163.73 L 350.812 166.977 L 350.932 167.142 L 350.74 170.812 L 350.74 170.812 Q 350.668 172.342 350.848 173.177 L 350.848 173.177 L 350.848 173.177 Q 351.028 174.012 351.4 174.318 L 351.4 174.318 L 351.4 174.318 Q 351.772 174.624 352.3 174.624 L 352.3 174.624 L 352.3 174.624 Q 353.068 174.624 353.68 174.312 L 353.68 174.312 L 353.68 174.312 Q 354.292 174 354.82 173.592 L 354.82 173.592 L 355.396 175.56 L 355.396 175.56 Q 354.58 176.16 353.656 176.484 L 353.656 176.484 L 353.656 176.484 Q 352.732 176.808 351.676 176.808 L 351.676 176.808 L 351.676 176.808 Z  M 345.868 167.784 L 345.916 165.648 L 354.508 165.648 L 354.484 167.784 L 345.868 167.784 L 345.868 167.784 Z " fill="rgb(255,83,163)"/><path d="M 253.42 150.59 L 273.58 150.59 C 277.951 150.59 281.5 154.139 281.5 158.51 L 281.5 178.67 C 281.5 183.041 277.951 186.59 273.58 186.59 L 253.42 186.59 C 249.049 186.59 245.5 183.041 245.5 178.67 L 245.5 158.51 C 245.5 154.139 249.049 150.59 253.42 150.59 Z" style="stroke:none;fill:#FF53A3;stroke-miterlimit:10;"/><path d=" M 260.876 169.68 L 250.388 175.92 L 250.388 172.872 L 257.444 168.864 L 250.412 165.408 L 250.412 162.408 L 260.876 168 L 260.876 169.68 L 260.876 169.68 Z  M 272.804 179.376 L 262.196 179.376 L 262.196 176.736 L 272.804 176.736 L 272.804 179.376 L 272.804 179.376 Z " fill="rgb(255,255,255)"/></g></svg>